<svg xmlns="http://www.w3.org/2000/svg" viewBox="0 0 119.73 24.63"><defs><style>.cls-1{fill:#fff;}.cls-2{fill:#57c7ff;}</style></defs><title>Fe_FinextraLogo_ondarkbgrd</title><g id="Layer_2" data-name="Layer 2"><g id="content"><path class="cls-1" d="M4.57,2.86v7.61H12.8v2.68H4.57v11H0V.14H13.78V2.86Z"/><path class="cls-1" d="M15.66,24.14V5.34h4.39v18.8Z"/><path class="cls-1" d="M35.18,24.14V10.71c0-2.41-2.23-3.32-4.74-3.32A11,11,0,0,0,26.91,8V24.14H22.55V6.21a23.23,23.23,0,0,1,8.13-1.36c5.34,0,8.9,1.67,8.9,5.79v13.5Z"/><path class="cls-2" d="M45.69,16.19c.42,3.73,2.66,5.61,6.42,5.61a14.64,14.64,0,0,0,5.76-1.08l1.05,2.55a17.64,17.64,0,0,1-7.19,1.36c-6.24,0-10.26-3.49-10.26-9.94,0-6.21,3.74-9.84,9.39-9.84s8.82,3.31,8.82,9.63Zm5-8.9c-3,0-5.37,2.2-5.26,6.87l10-1.29C55.46,9,53.58,7.29,50.68,7.29Z"/><path class="cls-2" d="M74,24.14,69.25,17h-.07l-4.82,7.15H59.72l7.33-9.8-6.56-9h4.78l4.29,6.38h.07l4.43-6.38h4.29l-6.7,8.79,7.4,10Z"/><path class="cls-2" d="M87.76,24.56c-4.29,0-5.93-2.55-5.93-5.1V7.78H79V5.34h2.86V1.12L86.19,0V5.34h4V7.78h-4V19.26A2.52,2.52,0,0,0,89,21.87a4.88,4.88,0,0,0,1.19-.17v2.47A6.64,6.64,0,0,1,87.76,24.56Z"/><path class="cls-2" d="M102.46,7.81A9.17,9.17,0,0,0,97,8V24.14H92.66V6.21a22,22,0,0,1,8.65-1.36c.74,0,1.64.07,2.1.1Z"/><path class="cls-2" d="M111.84,24.63c-6,0-8.82-2.2-8.82-5.79,0-5.06,5.75-6.42,12.59-7V10.78c0-2.58-1.92-3.35-4.71-3.35a15.63,15.63,0,0,0-5.55,1.08l-1-2.3a20.8,20.8,0,0,1,7.36-1.36c4.54,0,8,1.71,8,6.52v11.9A19.85,19.85,0,0,1,111.84,24.63Zm3.77-10.89c-5.06.49-8.44,1.36-8.44,5,0,2.55,2,3.63,5,3.63a8.64,8.64,0,0,0,3.42-.63Z"/><path class="cls-1" d="M15.66,2.84V.14h4.39v2.7Z"/></g></g></svg>