<svg xmlns="http://www.w3.org/2000/svg" width="127.26" height="37.822" viewBox="0 0 127.26 37.822">
  <g id="Group_5481" data-name="Group 5481" transform="translate(-228.025 -235.892)">
    <g id="Group_5479" data-name="Group 5479" transform="translate(228.314 235.892)">
      <path id="Path_9475" data-name="Path 9475" d="M229.883,252.754a.682.682,0,0,1,.724-.188,5.953,5.953,0,0,1,1.053.505,7.524,7.524,0,0,0,3.4,1.047,6.175,6.175,0,0,0,4.712-1.522,5.617,5.617,0,0,0,1.851-3.932,4.872,4.872,0,0,0-.585-2.764,5.685,5.685,0,0,0-1.948-1.8,23.683,23.683,0,0,0-3.251-1.388,9.453,9.453,0,0,1-3.093-1.546,2.239,2.239,0,0,1-.657-1.169,2.918,2.918,0,0,1,.049-1.5,2.084,2.084,0,0,1,.743-1.193,3.592,3.592,0,0,1,2.35-.8,3.822,3.822,0,0,1,3.275,1.412,7.794,7.794,0,0,1,1.449,3.214l.45-.049-.377-4.931h-.475q-.025,1.1-1.729.341a6.733,6.733,0,0,0-2.715-.6,6.268,6.268,0,0,0-4.261,1.437,4.467,4.467,0,0,0-1.437,3.4q.025,2.873,3.726,4.748a20.677,20.677,0,0,0,1.924.828,16.38,16.38,0,0,1,2.2,1,4.711,4.711,0,0,1,1.339,1.059,2.758,2.758,0,0,1,.536,1.376,3.641,3.641,0,0,1-.195,1.619,2.66,2.66,0,0,1-1,1.315,4.571,4.571,0,0,1-2.934.742,5.4,5.4,0,0,1-3.725-1.522,7.142,7.142,0,0,1-1.778-3.457h-.438v5.43h.438A1.654,1.654,0,0,1,229.883,252.754Z" transform="translate(-229.067 -235.892)"/>
      <path id="Path_9476" data-name="Path 9476" d="M279.972,237.339h2.837v14.5a1.959,1.959,0,0,1-2.228,2.2v.487h7.549v-.487a1.959,1.959,0,0,1-2.228-2.2v-14.5h2.837q3.676,0,3.932,3.75l.475-.024-.268-4.249H275.833l-.268,4.225.475.049Q276.3,237.338,279.972,237.339Z" transform="translate(-262.683 -236.559)"/>
      <path id="Path_9477" data-name="Path 9477" d="M328.969,253.962v.535h4.493v-.535q-2.07,0-1.3-1.912l1.315-3.433h6.27l1.388,3.433q.779,1.936-1.29,1.912v.535h14.45v-.487a1.942,1.942,0,0,1-2.2-2.2v-5.88h.487a3.479,3.479,0,0,1,1.972.5,3.372,3.372,0,0,1,1.205,1.388l1.546,3.47a7.822,7.822,0,0,1,.889,3.214h6.051v-.487q-2.07,0-3.628-3.153l-1.668-3.336a2.689,2.689,0,0,0-2.3-1.68,5.532,5.532,0,0,0,3.19-1.534,4.054,4.054,0,0,0,1.266-2.959,4.113,4.113,0,0,0-1.571-3.238,5.717,5.717,0,0,0-3.8-1.339h-8.973v.5a1.952,1.952,0,0,1,2.2,2.228v12.309a1.893,1.893,0,0,1-1.837,2.187v-.032a2.767,2.767,0,0,1-2.557-1.912l-6.343-15.267h-.828l-5.807,15.267A2.607,2.607,0,0,1,328.969,253.962Zm23.118-16.619h1.145a4.826,4.826,0,0,1,3.336,1.151,3.844,3.844,0,0,1,0,5.747,4.825,4.825,0,0,1-3.336,1.15h-1.145Zm-15.558,3.312q2.678,6.671,3.007,7.451h-5.856Q333.875,247.607,336.53,240.655Z" transform="translate(-301.292 -236.527)"/>
      <path id="Path_9478" data-name="Path 9478" d="M458.457,237.339h2.837v14.5a1.959,1.959,0,0,1-2.228,2.2v.487h7.548v-.487a1.959,1.959,0,0,1-2.228-2.2v-14.5h2.837q3.677,0,3.932,3.75l.475-.024-.268-4.249H454.318l-.268,4.225.475.049Q454.78,237.338,458.457,237.339Z" transform="translate(-391.72 -236.559)"/>
      <path id="Path_9479" data-name="Path 9479" d="M520.548,239.562v9.533a5.173,5.173,0,0,0,1.753,4.249,7.964,7.964,0,0,0,5.125,1.5,7.85,7.85,0,0,0,5.04-1.5,5.118,5.118,0,0,0,1.9-4.249v-9.533a1.943,1.943,0,0,1,2.167-2.228v-.475h-4.955v.475a1.959,1.959,0,0,1,2.2,2.228v9.533a4.31,4.31,0,0,1-1.315,3.47,6.583,6.583,0,0,1-7.427-.03,4.4,4.4,0,0,1-1.351-3.44v-9.533a1.952,1.952,0,0,1,2.2-2.228v-.475h-7.548v.475A1.952,1.952,0,0,1,520.548,239.562Z" transform="translate(-438.202 -236.591)"/>
      <path id="Path_9480" data-name="Path 9480" d="M592.437,254.042a1.952,1.952,0,0,1-2.2-2.228V246.92h4.3a5.085,5.085,0,0,0,3.677-1.479,4.957,4.957,0,0,0,0-7.147,5.084,5.084,0,0,0-3.677-1.479h-9.606v.487q2.2-.061,2.2,2.228v12.284a1.952,1.952,0,0,1-2.2,2.228v.487h7.512Zm-2.2-16.655h2.045a3.946,3.946,0,0,1,2.971,1.279,4.741,4.741,0,0,1,0,6.4,3.952,3.952,0,0,1-2.971,1.309h-2.045Z" transform="translate(-486.337 -236.559)"/>
      <path id="Path_9481" data-name="Path 9481" d="M641.816,252.754a.682.682,0,0,1,.724-.188,5.952,5.952,0,0,1,1.053.505,7.524,7.524,0,0,0,3.4,1.047A6.174,6.174,0,0,0,651.7,252.6a5.615,5.615,0,0,0,1.851-3.932,4.869,4.869,0,0,0-.584-2.764,5.685,5.685,0,0,0-1.948-1.8,23.7,23.7,0,0,0-3.251-1.388,9.452,9.452,0,0,1-3.092-1.546,2.235,2.235,0,0,1-.657-1.169,2.915,2.915,0,0,1,.049-1.5,2.084,2.084,0,0,1,.742-1.193,3.593,3.593,0,0,1,2.35-.8,3.821,3.821,0,0,1,3.275,1.412,7.794,7.794,0,0,1,1.449,3.214l.45-.049-.378-4.931h-.475q-.024,1.1-1.729.341a6.731,6.731,0,0,0-2.715-.6,6.267,6.267,0,0,0-4.261,1.437,4.467,4.467,0,0,0-1.437,3.4q.025,2.873,3.725,4.748a20.684,20.684,0,0,0,1.924.828,16.4,16.4,0,0,1,2.2,1,4.71,4.71,0,0,1,1.339,1.059,2.755,2.755,0,0,1,.536,1.376,3.632,3.632,0,0,1-.195,1.619,2.659,2.659,0,0,1-1,1.315,4.571,4.571,0,0,1-2.934.742,5.4,5.4,0,0,1-3.725-1.522,7.14,7.14,0,0,1-1.778-3.457H641v5.43h.438A1.654,1.654,0,0,1,641.816,252.754Z" transform="translate(-526.876 -235.892)"/>
    </g>
    <g id="Group_5480" data-name="Group 5480" transform="translate(256.498 265.927)">
      <path id="Path_9482" data-name="Path 9482" d="M335,349.108l-2.072-4.548H330.8v7.645h1.734v-4.962l1.832,4.2h1.265l1.832-4.2.011,4.962h1.712V344.56h-2.116Z" transform="translate(-330.799 -344.49)"/>
      <path id="Path_9483" data-name="Path 9483" d="M373.236,344.58l-3.293,7.634h2l.556-1.407h3.337l.545,1.407h2.072l-3.217-7.634Zm-.174,4.755,1.113-2.825,1.09,2.825Z" transform="translate(-359.098 -344.504)"/>
      <path id="Path_9484" data-name="Path 9484" d="M410.166,345.93a3.133,3.133,0,0,1,2.04.829l1.09-1.32a4.878,4.878,0,0,0-3.119-1.134,3.96,3.96,0,0,0-4.21,3.883,3.909,3.909,0,0,0,4.079,3.9,6,6,0,0,0,3.174-.992v-2.977h-1.68V350.1a3.242,3.242,0,0,1-1.352.371,2.269,2.269,0,0,1-.022-4.537Z" transform="translate(-385.142 -344.305)"/>
      <path id="Path_9485" data-name="Path 9485" d="M442.422,344.58l-3.294,7.634h2l.556-1.407h3.337l.545,1.407h2.072l-3.217-7.634Zm-.175,4.755,1.112-2.825,1.091,2.825Z" transform="translate(-409.117 -344.504)"/>
      <path id="Path_9486" data-name="Path 9486" d="M482.175,345.823V344.58h-6.533v1.538h3.948l-4.09,4.853v1.243h6.74v-1.538H478.1Z" transform="translate(-435.412 -344.504)"/>
      <rect id="Rectangle_3374" data-name="Rectangle 3374" width="1.941" height="7.634" transform="translate(49.32 0.076)"/>
      <path id="Path_9487" data-name="Path 9487" d="M531.5,349.291l-3.523-4.711h-1.712v7.634h1.821v-4.7l3.512,4.7h1.712V344.58H531.5Z" transform="translate(-472.115 -344.504)"/>
      <path id="Path_9488" data-name="Path 9488" d="M564.538,349.149h3.642v-1.527h-3.642v-1.516h4.035V344.58H562.6v7.634h6.1v-1.527h-4.155Z" transform="translate(-498.378 -344.504)"/>
    </g>
    <rect id="Rectangle_3375" data-name="Rectangle 3375" width="127.26" height="0.795" transform="translate(228.025 261.774)"/>
  </g>
</svg>
