<svg xmlns="http://www.w3.org/2000/svg" xmlns:xlink="http://www.w3.org/1999/xlink" width="55.352" height="40.001" viewBox="0 0 55.352 40.001">
  <defs>
    <linearGradient id="linear-gradient" x1="0.5" y1="1" x2="0.5" gradientUnits="objectBoundingBox">
      <stop offset="0" stop-color="#b3b7f4"/>
      <stop offset="1" stop-color="#a7bffb"/>
    </linearGradient>
    <linearGradient id="linear-gradient-2" x1="0.5" x2="0.5" y2="1" gradientUnits="objectBoundingBox">
      <stop offset="0" stop-color="#f2f6ff"/>
      <stop offset="1" stop-color="#dae4ff"/>
    </linearGradient>
  </defs>
  <g id="Icon_Track" data-name="Icon Track" transform="translate(-0.619)">
    <g id="ic_take_control" data-name="ic_take control">
      <path id="Rectangle" d="M3.048,0H27.619a0,0,0,0,1,0,0V7.392a0,0,0,0,1,0,0H0a0,0,0,0,1,0,0V3.048A3.048,3.048,0,0,1,3.048,0Z" transform="translate(0.619)" fill="url(#linear-gradient)"/>
      <path id="Combined_Shape_Copy" data-name="Combined Shape Copy" d="M34.476,40H8.607a3.33,3.33,0,0,1-3.33-3.174L3.81,6.095,3.425,3.024A3.8,3.8,0,0,0,0,0H29.224a3.052,3.052,0,0,1,3.042,2.867L34.476,40Z" transform="translate(3.667 0)" fill="#757ae9"/>
      <path id="Combined_Shape" data-name="Combined Shape" d="M29.219,7.619H.006A4.754,4.754,0,0,0,4.282,3.839L4.762,0H33.809l-.846,4.512A3.811,3.811,0,0,1,29.219,7.619Z" transform="translate(12.524 32.381)" fill="url(#linear-gradient-2)"/>
      <g id="Group_36" data-name="Group 36" transform="translate(13.776 7.858)">
        <path id="Combined_Shape-2" data-name="Combined Shape" d="M15.666,18.715H2.333a1.115,1.115,0,0,1-1.073-.953.844.844,0,0,1,.2-.676.833.833,0,0,1,.637-.277H15.426a1.113,1.113,0,0,1,1.072.952.846.846,0,0,1-.2.677A.831.831,0,0,1,15.666,18.715Zm-.6-9H1.732A1.115,1.115,0,0,1,.66,8.761a.846.846,0,0,1,.2-.676.832.832,0,0,1,.635-.276H14.826a1.115,1.115,0,0,1,1.073.952.848.848,0,0,1-.2.677A.832.832,0,0,1,15.066,9.715ZM14.413,1.9H1.08A1.114,1.114,0,0,1,.007.952.846.846,0,0,1,.2.276.832.832,0,0,1,.84,0H14.173a1.115,1.115,0,0,1,1.073.952.847.847,0,0,1-.2.676A.832.832,0,0,1,14.413,1.9Z" transform="translate(0.512 0.285)" fill="#fff"/>
      </g>
    </g>
    <g id="Group_67" data-name="Group 67" transform="translate(26 4)">
      <rect id="Rectangle-2" data-name="Rectangle" width="2" height="9" transform="translate(19.071 20.485) rotate(-45)" fill="#757ae9"/>
      <rect id="Rectangle_Copy_116" data-name="Rectangle Copy 116" width="2" height="2" transform="translate(19.071 20.485) rotate(-45)" fill="#fff"/>
      <rect id="Rectangle_Copy_115" data-name="Rectangle Copy 115" width="4" height="9" rx="1" transform="translate(20.778 23.607) rotate(-45)" fill="#4c50b1"/>
      <circle id="Oval" cx="11.5" cy="11.5" r="11.5" transform="translate(0)" fill="#fff" stroke="#00d4b0" stroke-miterlimit="10" stroke-width="3"/>
      <path id="Combined_Shape-3" data-name="Combined Shape" d="M2,17a8.539,8.539,0,0,1-2-.237A8.472,8.472,0,0,0,6.5,8.5,8.472,8.472,0,0,0,0,.237,8.5,8.5,0,1,1,2,17Z" transform="translate(9.5 3)" fill="url(#linear-gradient-2)"/>
    </g>
  </g>
</svg>
