<svg width="342" height="219" viewBox="0 0 342 219" fill="none" xmlns="http://www.w3.org/2000/svg">
<path fill-rule="evenodd" clip-rule="evenodd" d="M243.1 36.0321C243.1 28.8606 222.488 20.6185 209.104 11.2867C195.721 1.95493 178.9 -4.24606 166.087 3.52033C153.275 11.2867 160.321 22.2839 190.722 36.0321C221.123 49.7803 243.1 43.2036 243.1 36.0321Z" fill="#F6F8FF"/>
<path d="M245.435 135.218C245.435 135.218 245.195 45.8849 243.1 36.032C241.004 26.1791 165.519 7.58276 165.519 7.58276" stroke="#CAD1EE" stroke-width="1.28"/>
<path fill-rule="evenodd" clip-rule="evenodd" d="M257.701 49.4067C257.701 49.4067 259.978 36.2537 280.336 29.1424C300.694 22.0312 328.325 25.6592 325.235 39.2746C322.146 52.89 295.611 61.5249 280.336 61.5249C265.061 61.5249 257.701 49.4067 257.701 49.4067Z" fill="#E9EDFA"/>
<path fill-rule="evenodd" clip-rule="evenodd" d="M257.701 49.4067C257.701 49.4067 259.978 36.2537 280.336 29.1424C300.694 22.0312 328.325 25.6592 325.235 39.2746C322.146 52.89 295.611 61.5249 280.336 61.5249C265.061 61.5249 257.701 49.4067 257.701 49.4067Z" fill="#EDF2FF"/>
<path d="M251.832 135.218C251.832 135.218 256.774 105.498 256.774 78.8982C256.774 52.2983 255.497 51.4065 260.778 45.4641C266.058 39.5216 302.062 29.929 321.035 35.0143" stroke="#CAD1EE" stroke-width="1.28" stroke-linecap="round" stroke-linejoin="round"/>
<path fill-rule="evenodd" clip-rule="evenodd" d="M214.37 78.8979C206.395 75.5824 199.893 74.486 187.268 72.9432C182.358 72.3431 177.695 72.5402 176.332 75.3563C174.19 79.7811 177.465 88.7718 179.863 96.774C183.786 109.869 199.603 94.5788 203.319 84.3977C207.035 74.2165 216.815 57.6702 218.258 63.6636C219.7 69.657 217.116 69.8593 214.37 78.8979Z" fill="#B8C8F7"/>
<path fill-rule="evenodd" clip-rule="evenodd" d="M214.37 78.8979C206.395 75.5825 199.893 74.486 187.268 72.9432C182.358 72.3432 177.695 72.5402 176.332 75.3563C177.532 72.1361 186.195 64.3672 195.813 62.3899C209.112 59.6557 216.815 57.6702 218.258 63.6636C219.7 69.657 217.116 69.8593 214.37 78.8979Z" fill="#EDF2FF"/>
<path d="M230.718 132.658C230.718 132.658 217.611 84.6146 212.884 74.1357C208.157 63.6568 194.472 63.6636 194.472 63.6636" stroke="#CAD1EE" stroke-width="1.28"/>
<path fill-rule="evenodd" clip-rule="evenodd" d="M270.383 83.9408C275.81 78.898 321.446 88.3557 333.526 96.2286C345.606 104.101 345.653 123.236 314.144 117.576C282.635 111.915 264.956 88.9836 270.383 83.9408Z" fill="#EDF2FF"/>
<path d="M257.701 134.099C257.701 134.099 265.163 88.1724 269.489 84.3976C273.815 80.6228 302.546 101.349 318.61 105.731C334.674 110.113 340.268 109.02 340.268 109.02" stroke="#B8C0E4" stroke-width="1.28"/>
<path d="M207.035 119.858H283.835V148.018C283.835 160.743 273.519 171.058 260.795 171.058H230.075C217.35 171.058 207.035 160.743 207.035 148.018V119.858Z" fill="url(#paint0_linear)"/>
<path opacity="0.8" d="M207.035 119.858H263.035V148.018C263.035 160.743 252.719 171.058 239.995 171.058H230.075C217.35 171.058 207.035 160.743 207.035 148.018V119.858Z" fill="url(#paint1_linear)"/>
<path d="M207.035 129.858H283.835" stroke="white" stroke-width="1.28"/>
<path fill-rule="evenodd" clip-rule="evenodd" d="M70.5882 186.353C73.4848 184.808 76.7172 184 80 184H307C309.082 184 309.778 186.785 307.941 187.765L289.412 197.647C286.515 199.192 283.283 200 280 200H53C50.9179 200 50.2217 197.215 52.0588 196.235L70.5882 186.353Z" fill="#6E71D4"/>
<path d="M70.5882 182.353C73.4848 180.808 76.7172 180 80 180H307C309.082 180 309.778 182.785 307.941 183.765L289.412 193.647C286.515 195.192 283.283 196 280 196H53C50.9179 196 50.2217 193.215 52.0588 192.235L70.5882 182.353Z" fill="url(#paint2_linear)"/>
<mask id="mask0" mask-type="alpha" maskUnits="userSpaceOnUse" x="50" y="180" width="260" height="16">
<path d="M70.5882 182.353C73.4848 180.808 76.7172 180 80 180H307C309.082 180 309.778 182.785 307.941 183.765L289.412 193.647C286.515 195.192 283.283 196 280 196H53C50.9179 196 50.2217 193.215 52.0588 192.235L70.5882 182.353Z" fill="white"/>
</mask>
<g mask="url(#mask0)">
<g opacity="0.1" filter="url(#filter0_f)">
<path fill-rule="evenodd" clip-rule="evenodd" d="M66.5882 180.353C69.4848 178.808 72.7172 178 76 178H303C305.082 178 305.778 180.785 303.941 181.765L285.412 191.647C282.515 193.192 279.283 194 276 194H49C46.9179 194 46.2217 191.215 48.0588 190.235L66.5882 180.353Z" fill="#5778D2"/>
</g>
</g>
<path d="M57.5882 177.353C60.4848 175.808 63.7172 175 67 175H294C296.082 175 296.778 177.785 294.941 178.765L276.412 188.647C273.515 190.192 270.283 191 267 191H40C37.9179 191 37.2217 188.215 39.0588 187.235L57.5882 177.353Z" fill="url(#paint3_linear)"/>
<path d="M57.5882 173.353C60.4848 171.808 63.7172 171 67 171H294C296.082 171 296.778 173.785 294.941 174.765L276.412 184.647C273.515 186.192 270.283 187 267 187H40C37.9179 187 37.2217 184.215 39.0588 183.235L57.5882 173.353Z" fill="url(#paint4_linear)"/>
<mask id="mask1" mask-type="alpha" maskUnits="userSpaceOnUse" x="37" y="171" width="260" height="16">
<path d="M57.5882 173.353C60.4848 171.808 63.7172 171 67 171H294C296.082 171 296.778 173.785 294.941 174.765L276.412 184.647C273.515 186.192 270.283 187 267 187H40C37.9179 187 37.2217 184.215 39.0588 183.235L57.5882 173.353Z" fill="white"/>
</mask>
<g mask="url(#mask1)">
<g opacity="0.1" filter="url(#filter1_f)">
<path fill-rule="evenodd" clip-rule="evenodd" d="M79.5882 171.353C82.4848 169.808 85.7172 169 89 169H316C318.082 169 318.778 171.785 316.941 172.765L298.412 182.647C295.515 184.192 292.283 185 289 185H62C59.9179 185 59.2217 182.215 61.0588 181.235L79.5882 171.353Z" fill="#5778D2"/>
</g>
</g>
<path d="M85.5882 168.353C88.4848 166.808 91.7172 166 95 166H322C324.082 166 324.778 168.785 322.941 169.765L304.412 179.647C301.515 181.192 298.283 182 295 182H68C65.9179 182 65.2217 179.215 67.0588 178.235L85.5882 168.353Z" fill="url(#paint5_linear)"/>
<path d="M85.5882 164.353C88.4848 162.808 91.7172 162 95 162H322C324.082 162 324.778 164.785 322.941 165.765L304.412 175.647C301.515 177.192 298.283 178 295 178H68C65.9179 178 65.2217 175.215 67.0588 174.235L85.5882 164.353Z" fill="url(#paint6_linear)"/>
<path opacity="0.8" d="M231 210.232L248.116 199.541L250.699 195.817L254.132 193.22V190.869L256.778 187.055L259.97 184.432L260.389 181.85L263.036 178.035L269.267 173.674L159.365 170.979V202.02L231 210.232Z" fill="url(#paint7_linear)"/>
<path d="M29.8689 157.573C31.5537 154.161 35.0297 152 38.8357 152H253.347C257.794 152 260.695 156.668 258.727 160.656L236.131 206.427C234.446 209.839 230.97 212 227.164 212H12.6533C8.20634 212 5.30468 207.332 7.27322 203.344L29.8689 157.573Z" fill="url(#paint8_linear)"/>
<path d="M26.8689 155.573C28.5537 152.161 32.0297 150 35.8357 150H250.347C254.794 150 257.695 154.668 255.727 158.656L233.131 204.427C231.446 207.839 227.97 210 224.164 210H9.65333C5.20634 210 2.30468 205.332 4.27322 201.344L26.8689 155.573Z" fill="url(#paint9_linear)"/>
<path opacity="0.5" d="M40.9094 192.382C41.0468 192.146 41.2998 192 41.5736 192H100.857C101.449 192 101.818 192.642 101.521 193.154L100.091 195.618C99.9532 195.854 99.7002 196 99.4264 196H40.1434C39.5514 196 39.182 195.358 39.4791 194.846L40.9094 192.382Z" fill="#D1DDFF"/>
<path opacity="0.5" d="M44.9093 177.382C45.0468 177.146 45.2998 177 45.5736 177H214.857C215.449 177 215.818 177.642 215.521 178.154L214.091 180.618C213.953 180.854 213.7 181 213.426 181H44.1433C43.5513 181 43.1819 180.358 43.4791 179.846L44.9093 177.382Z" fill="#D1DDFF"/>
<path opacity="0.5" d="M196.225 160.321C196.369 160.119 196.602 160 196.849 160H226.634C227.26 160 227.623 160.707 227.259 161.215L224.775 164.679C224.631 164.881 224.398 165 224.151 165H194.366C193.74 165 193.377 164.293 193.741 163.785L196.225 160.321Z" fill="#D1DDFF"/>
<path opacity="0.34" d="M180.76 200C187.388 200 193.879 197.538 195.26 194.5C196.641 191.462 192.388 189 185.76 189C179.133 189 172.641 191.462 171.26 194.5C169.879 197.538 174.133 200 180.76 200Z" fill="#CBD9FF"/>
<path opacity="0.34" d="M193.76 200C200.388 200 206.879 197.538 208.26 194.5C209.641 191.462 205.388 189 198.76 189C192.133 189 185.641 191.462 184.26 194.5C182.879 197.538 187.133 200 193.76 200Z" fill="#BACEFF"/>
<path d="M50.9332 159.914C51.1982 159.356 51.7608 159 52.3785 159H75.8513C77.0266 159 77.8008 160.225 77.2966 161.286L74.0668 168.086C73.8018 168.644 73.2392 169 72.6215 169H49.1487C47.9734 169 47.1992 167.775 47.7034 166.714L50.9332 159.914Z" fill="#D1DDFF"/>
<mask id="mask2" mask-type="alpha" maskUnits="userSpaceOnUse" x="47" y="159" width="31" height="10">
<path d="M50.9332 159.914C51.1982 159.356 51.7608 159 52.3785 159H75.8513C77.0266 159 77.8008 160.225 77.2966 161.286L74.0668 168.086C73.8018 168.644 73.2392 169 72.6215 169H49.1487C47.9734 169 47.1992 167.775 47.7034 166.714L50.9332 159.914Z" fill="white"/>
</mask>
<g mask="url(#mask2)">
<path d="M68.0811 163.5H80.9189C81.6014 163.5 82.0834 164.169 81.8675 164.816C81.7314 165.225 81.3493 165.5 80.9189 165.5H68.0811C67.3986 165.5 66.9166 164.831 67.1325 164.184C67.2686 163.775 67.6507 163.5 68.0811 163.5Z" stroke="#FEFEFF"/>
<path d="M43.0811 163.5H55.9189C56.6014 163.5 57.0834 164.169 56.8675 164.816C56.7314 165.225 56.3493 165.5 55.9189 165.5H43.0811C42.3986 165.5 41.9166 164.831 42.1325 164.184C42.2686 163.775 42.6507 163.5 43.0811 163.5Z" stroke="#FEFEFF"/>
<path d="M45.0811 160.5H57.9189C58.6014 160.5 59.0834 161.169 58.8675 161.816C58.7314 162.225 58.3493 162.5 57.9189 162.5H45.0811C44.3986 162.5 43.9166 161.831 44.1325 161.184C44.2686 160.775 44.6507 160.5 45.0811 160.5Z" stroke="#FEFEFF"/>
<path d="M55.8607 165.455C55.8607 165.455 52.9623 167.751 59.824 167.984C66.6857 168.218 67 165 67 165" stroke="#FEFEFF"/>
<path d="M66 166.983L79 167.017" stroke="#FEFEFF" stroke-linecap="round" stroke-linejoin="round"/>
<path d="M42 166.983L55 167.017" stroke="#FEFEFF" stroke-linecap="round" stroke-linejoin="round"/>
</g>
<path d="M256.24 157.007L321.311 215.99" stroke="#A0BEFF" stroke-linecap="round" stroke-linejoin="round"/>
<path d="M283.147 130.21L280.022 217.814" stroke="#A0BEFF" stroke-linecap="round" stroke-linejoin="round"/>
<path d="M232.157 210.387L311.364 161.154" stroke="#A0BEFF" stroke-linecap="round" stroke-linejoin="round"/>
<path d="M244.761 179.814H301.247" stroke="#A0BEFF" stroke-linecap="round" stroke-linejoin="round"/>
<path d="M269.859 186.688C269.859 186.688 273.771 188.168 275.601 189.058C277.431 189.948 280.838 192.026 280.838 192.026C280.838 192.026 283.225 189.952 284.639 189.058C286.053 188.164 289.281 186.688 289.281 186.688C289.281 186.688 288.653 184.386 288.822 183.088C288.991 181.79 290.213 179.539 290.213 179.539C290.213 179.539 289.475 178.754 289.281 177.699C289.086 176.643 289.281 174.492 289.281 174.492C289.281 174.492 286.422 173.013 285.124 172.017C283.826 171.021 281.852 168.792 281.852 168.792C281.852 168.792 279.369 171.418 277.737 172.017C276.105 172.616 273.068 172.017 273.068 172.017C273.068 172.017 272.428 174.861 271.69 176.132C270.952 177.403 268.7 179.539 268.7 179.539C268.7 179.539 269.66 181.862 269.859 183.088C270.058 184.315 269.859 186.688 269.859 186.688Z" stroke="#A0BEFF" stroke-linecap="round" stroke-linejoin="round"/>
<path d="M256.398 179.586C256.398 179.586 257.819 183.942 258.109 186.449C258.4 188.955 258.109 194.366 258.109 194.366C258.109 194.366 265.635 195.112 269.718 197.037C273.802 198.963 280.422 204.888 280.422 204.888C280.422 204.888 286.749 199.757 290.319 198.315C293.889 196.874 299.867 197.037 299.867 197.037C299.867 197.037 299.465 185.989 299.867 180.447C300.269 174.905 302.046 166.991 302.046 166.991C302.046 166.991 294.795 164.583 291.357 161.939C287.919 159.294 281.947 151.532 281.947 151.532C281.947 151.532 277.613 156.773 274.197 158.889C270.782 161.004 263.025 163.249 263.025 163.249C263.025 163.249 262.285 168.99 261.115 171.874C259.945 174.757 256.398 179.586 256.398 179.586Z" stroke="#A0BEFF" stroke-linecap="round" stroke-linejoin="round"/>
<path d="M246.121 179.666C246.121 179.666 246.534 188.173 246.121 192.387C245.708 196.602 243.823 203.132 243.823 203.132C243.823 203.132 246.356 209.713 248.138 210.654C249.921 211.594 252.247 212.348 252.247 212.348" stroke="#A0BEFF" stroke-linecap="round" stroke-linejoin="round"/>
<path d="M278.65 215.936L280.201 213.683C280.201 213.683 288.481 209.324 293.905 208.107C299.328 206.891 310.487 205.825 310.487 205.825C310.487 205.825 311.516 211.521 310.487 212.611C309.457 213.701 308.467 214.041 308.467 214.041" stroke="#A0BEFF" stroke-linecap="round" stroke-linejoin="round"/>
<path d="M311.293 160.977V167.692" stroke="#A0BEFF" stroke-linecap="round" stroke-linejoin="round"/>
<path d="M311.556 160.779C311.556 160.779 284.168 144.4 282.871 134.077C270.064 151.078 254.304 152.01 254.304 152.01" stroke="#A0BEFF" stroke-linecap="round" stroke-linejoin="round"/>
<defs>
<filter id="filter0_f" x="44.2785" y="175.282" width="263.443" height="21.4366" filterUnits="userSpaceOnUse" color-interpolation-filters="sRGB">
<feFlood flood-opacity="0" result="BackgroundImageFix"/>
<feBlend mode="normal" in="SourceGraphic" in2="BackgroundImageFix" result="shape"/>
<feGaussianBlur stdDeviation="1.35914" result="effect1_foregroundBlur"/>
</filter>
<filter id="filter1_f" x="57.2785" y="166.282" width="263.443" height="21.4366" filterUnits="userSpaceOnUse" color-interpolation-filters="sRGB">
<feFlood flood-opacity="0" result="BackgroundImageFix"/>
<feBlend mode="normal" in="SourceGraphic" in2="BackgroundImageFix" result="shape"/>
<feGaussianBlur stdDeviation="1.35914" result="effect1_foregroundBlur"/>
</filter>
<linearGradient id="paint0_linear" x1="286.219" y1="183.858" x2="305.199" y2="123.383" gradientUnits="userSpaceOnUse">
<stop stop-color="#EDF2FF"/>
<stop offset="1" stop-color="#D9E0F8"/>
</linearGradient>
<linearGradient id="paint1_linear" x1="263.035" y1="171.058" x2="263.035" y2="119.858" gradientUnits="userSpaceOnUse">
<stop stop-color="#EDF2FF"/>
<stop offset="1" stop-color="#EDF2FF"/>
</linearGradient>
<linearGradient id="paint2_linear" x1="-155.528" y1="156.234" x2="-155.528" y2="196" gradientUnits="userSpaceOnUse">
<stop stop-color="#FBFCFF"/>
<stop offset="1" stop-color="#E2EAFF"/>
</linearGradient>
<linearGradient id="paint3_linear" x1="-133.481" y1="155.583" x2="-133.493" y2="190.907" gradientUnits="userSpaceOnUse">
<stop stop-color="#D1DDFF"/>
<stop offset="1" stop-color="#7875EB"/>
</linearGradient>
<linearGradient id="paint4_linear" x1="-168.528" y1="147.234" x2="-168.528" y2="187" gradientUnits="userSpaceOnUse">
<stop stop-color="#FBFCFF"/>
<stop offset="1" stop-color="#E2EAFF"/>
</linearGradient>
<linearGradient id="paint5_linear" x1="-105.481" y1="146.749" x2="-105.473" y2="182.073" gradientUnits="userSpaceOnUse">
<stop stop-color="#D1DDFF"/>
<stop offset="1" stop-color="#C4D5FF"/>
</linearGradient>
<linearGradient id="paint6_linear" x1="-140.528" y1="138.234" x2="-140.528" y2="178" gradientUnits="userSpaceOnUse">
<stop stop-color="#FBFCFF"/>
<stop offset="1" stop-color="#E2EAFF"/>
</linearGradient>
<linearGradient id="paint7_linear" x1="159.365" y1="170.979" x2="159.365" y2="210.232" gradientUnits="userSpaceOnUse">
<stop stop-color="#91ACF9" stop-opacity="0.01"/>
<stop offset="1" stop-color="#6893FF"/>
</linearGradient>
<linearGradient id="paint8_linear" x1="-4.68087" y1="140.449" x2="-5.42139" y2="210.538" gradientUnits="userSpaceOnUse">
<stop stop-color="#D1DDFF"/>
<stop offset="1" stop-color="#C4D5FF"/>
</linearGradient>
<linearGradient id="paint9_linear" x1="2.48781e-06" y1="149.343" x2="-0.303227" y2="209.371" gradientUnits="userSpaceOnUse">
<stop stop-color="#F7F9FF"/>
<stop offset="1" stop-color="#EAEEFF"/>
</linearGradient>
</defs>
</svg>
